<svg width="100%" height="100%" viewBox="0 0 28 22" fill="none" xmlns="http://www.w3.org/2000/svg">
<path d="M10.6056 0.0993881C10.2007 -0.0829659 9.72463 -0.0103476 9.39294 0.284027L4.64083 4.49831H1.69014C0.756688 4.49831 0 5.25367 0 6.15384V9.49653C0 10.4283 0.756688 11.1521 1.69014 11.1521H4.64224L9.39223 15.3664C9.60294 15.5532 9.8704 15.6509 10.1408 15.6509C10.2971 15.6509 10.4567 15.618 10.6046 15.551C11.0095 15.3697 11.2672 14.9689 11.2672 14.526V1.12399C11.2359 0.681459 11.0105 0.280407 10.6056 0.0993881ZM18.095 7.841L19.751 6.18793C20.0811 5.85841 20.0811 5.32467 19.751 4.99497C19.4209 4.66527 18.8862 4.66545 18.5559 4.99497L16.9014 6.68108L15.2148 5.02555C14.8847 4.69603 14.35 4.69603 14.0197 5.02555C13.6894 5.35507 13.6896 5.88881 14.0197 6.21851L15.6757 7.87158L14.0197 9.52465C13.6896 9.85417 13.6896 10.3879 14.0197 10.7176C14.3497 11.0471 14.8845 11.0473 15.2148 10.7176L16.9014 9.06419L18.5574 10.7173C18.8874 11.0467 19.4221 11.047 19.7524 10.7173C20.0825 10.3877 20.0825 9.85399 19.7524 9.52429L18.095 7.841Z" fill="white"/>
</svg>
