<svg width="35px" height="35px" viewBox="0 0 22 27" fill="none" xmlns="http://www.w3.org/2000/svg">
<path d="M14.1335 0H12.4708C11.0933 0 9.97662 1.11665 9.97662 2.44739V17.4123C9.97662 18.7898 11.0933 19.9065 12.4708 19.9065L14.1335 20C15.511 20 16.6277 18.8833 16.6277 17.5058V2.54092C16.6277 1.16342 15.5105 0 14.1335 0ZM4.15693 0H2.49416C1.11665 0 0 1.11665 0 2.49415V17.4591C0 18.8828 1.11665 20 2.49416 20H4.15693C5.53443 20 6.65108 18.8833 6.65108 17.5058V2.54092C6.65108 1.16342 5.53391 0 4.15693 0Z" fill="white"/>
</svg>
