<svg width="35px" height="35px" viewBox="0 0 26 26" fill="none" xmlns="http://www.w3.org/2000/svg">
<path d="M12.6056 4.09939C12.2007 3.91703 11.7246 3.98965 11.3929 4.28403L6.64083 8.49831H3.69014C2.75669 8.49831 2 9.25367 2 10.1538V13.4965C2 14.4283 2.75669 15.1521 3.69014 15.1521H6.64224L11.3922 19.3664C11.6029 19.5532 11.8704 19.6509 12.1408 19.6509C12.2971 19.6509 12.4567 19.618 12.6046 19.551C13.0095 19.3697 13.2672 18.9689 13.2672 18.526V5.12399C13.2359 4.68146 13.0105 4.28041 12.6056 4.09939Z" fill="white"/>
<path d="M16.1769 9.72806C15.8684 9.47219 15.4145 9.51723 15.1642 9.83251C14.912 10.1469 14.957 10.6108 15.2655 10.8684C15.6038 11.1526 15.7988 11.564 15.7988 11.9724C15.7988 12.4074 15.6038 12.8194 15.2644 13.1031C14.956 13.3609 14.911 13.8246 15.1632 14.139C15.3048 14.3172 15.5118 14.4092 15.7201 14.4092C15.8804 14.4092 16.0426 14.3546 16.1758 14.2435C16.852 13.7039 17.2391 12.8781 17.2391 11.9724C17.2391 11.0667 16.852 10.293 16.1769 9.72806ZM17.9922 7.46227C17.6855 7.2064 17.2319 7.25049 16.9786 7.56481C16.7264 7.8792 16.7714 8.3431 17.079 8.60069C18.0972 9.42411 18.6793 10.689 18.6793 11.9724C18.6793 13.2557 18.096 14.493 17.0797 15.371C16.7722 15.6288 16.7272 16.0925 16.9794 16.4069C17.1219 16.5842 17.3281 16.6762 17.5363 16.6762C17.6976 16.6762 17.8588 16.6216 17.993 16.5095C19.3454 15.4048 20.1195 13.75 20.1195 11.9724C20.1195 10.1947 19.3454 8.59209 17.9922 7.46227ZM19.8315 5.16577C19.5248 4.9099 19.0712 4.95494 18.8179 5.26832C18.5657 5.5827 18.6107 6.04661 18.9183 6.30419C20.5966 7.71095 21.5598 9.78639 21.5598 11.9724C21.5598 14.1583 20.5969 16.2614 18.9175 17.6675C18.61 17.9253 18.565 18.389 18.8172 18.7034C18.9583 18.9079 19.1654 19 19.3754 19C19.5367 19 19.698 18.9454 19.8321 18.8333C21.8448 17.1456 23 14.6557 23 11.9724C23 9.28902 21.8448 6.85253 19.8315 5.16577Z" fill="white"/>
</svg>
